<?xml version="1.0" encoding="utf-8"?>
<!-- Generator: Adobe Illustrator 16.0.0, SVG Export Plug-In . SVG Version: 6.00 Build 0)  -->
<!DOCTYPE svg PUBLIC "-//W3C//DTD SVG 1.1//EN" "http://www.w3.org/Graphics/SVG/1.1/DTD/svg11.dtd">
<svg version="1.1" id="Layer_1" xmlns="http://www.w3.org/2000/svg" xmlns:xlink="http://www.w3.org/1999/xlink" x="0px" y="0px"
	 width="24px" height="24px" viewBox="0 0 24 24" enable-background="new 0 0 24 24" xml:space="preserve">
<path fill="#FFFFFF" d="M8.26,1.289L6.696,2.061c-5.793,3.02,2.798,20.944,9.31,20.944c0.46,0,0.904-0.094,1.317-0.284l1.542-0.755
	l-2.898-5.594l-1.54,0.754c-0.181,0.087-0.384,0.134-0.597,0.134c-2.561,0-6.841-8.204-4.241-9.596l1.546-0.763L8.26,1.289z
	 M16.006,24C10.326,24,3.785,12.886,3.785,6.168c0-2.419,0.833-4.146,2.457-4.992L8.624,0l3.857,7.347l-2.437,1.201
	C8.605,9.32,12.453,16.973,14,16.229l2.398-1.18l3.816,7.36c0,0-2.359,1.161-2.477,1.215C17.191,23.875,16.609,24,16.006,24"/>
</svg>
